<svg
  width="26"
  height="35"
  viewBox="0 0 26 35"
  fill="none"
  xmlns="http://www.w3.org/2000/svg"
>
<path
    d="M13 16.6452C12.5718 16.6456 12.1478 16.5595 11.7523 16.3917C11.3567 16.2239 10.9975 15.9777 10.6952 15.6674L0.915125 5.65566C0.321287 5.02625 -0.00730444 4.18325 0.000123237 3.30824C0.00755092 2.43323 0.350403 1.59621 0.954836 0.977456C1.55927 0.358704 2.37692 0.00772978 3.23169 0.000126156C4.08645 -0.00747747 4.90994 0.328899 5.52478 0.936804L13 8.58909L20.4752 0.936804C21.0901 0.328899 21.9135 -0.00747747 22.7683 0.000126156C23.6231 0.00772978 24.4407 0.358704 25.0452 0.977456C25.6496 1.59621 25.9924 2.43323 25.9999 3.30824C26.0073 4.18325 25.6787 5.02625 25.0849 5.65566L15.3048 15.6674C15.0025 15.9777 14.6433 16.2239 14.2477 16.3917C13.8522 16.5595 13.4282 16.6456 13 16.6452ZM13 35C12.5718 35.0005 12.1478 34.9143 11.7523 34.7465C11.3567 34.5787 10.9975 34.3325 10.6952 34.0222L0.915125 24.0105C0.321287 23.3811 -0.00730444 22.5381 0.000123237 21.6631C0.00755092 20.788 0.350403 19.951 0.954836 19.3323C1.55927 18.7135 2.37692 18.3625 3.23169 18.3549C4.08645 18.3473 4.90994 18.6837 5.52478 19.2916L13 26.9439L20.4752 19.2916C21.0901 18.6837 21.9135 18.3473 22.7683 18.3549C23.6231 18.3625 24.4407 18.7135 25.0452 19.3323C25.6496 19.951 25.9924 20.788 25.9999 21.6631C26.0073 22.5381 25.6787 23.3811 25.0849 24.0105L15.3048 34.0222C15.0025 34.3325 14.6433 34.5787 14.2477 34.7465C13.8522 34.9143 13.4282 35.0005 13 35Z"
    fill="#F3F3F3"
  />
</svg>
