<svg
  width="43"
  height="49"
  viewBox="0 0 43 49"
  fill="none"
  xmlns="http://www.w3.org/2000/svg"
>
<path
    d="M40.412 9.10509C40.2228 8.85363 40.0205 8.61222 39.8061 8.38185C40.0218 7.80662 40.1856 7.21321 40.2955 6.60874C40.6201 4.39748 40.3382 2.13946 39.4799 0.0762408C39.4799 0.0762408 36.87 -0.740321 30.8811 3.29583C28.3386 2.59298 25.7123 2.23978 23.0746 2.24596C20.4294 2.24132 17.7956 2.59447 15.2448 3.29583C9.25596 -0.786982 6.64603 0.0762408 6.64603 0.0762408C5.79798 2.11761 5.5162 4.35035 5.83042 6.53875C5.941 7.16836 6.1127 7.78565 6.34309 8.38185C6.13336 8.61515 5.92363 8.87179 5.73721 9.10509C3.99831 11.2889 3.07524 14.0118 3.12728 16.8041C3.12175 17.4664 3.15287 18.1284 3.22049 18.7872C3.96618 29.1225 10.8406 31.5256 17.3887 32.2721C16.4619 33.135 15.8334 34.2708 15.5944 35.5151C15.3778 36.3449 15.2758 37.2005 15.2914 38.0581V41.1143C12.6838 41.3476 10.0086 40.9674 9.17906 38.639C8.28854 36.4104 6.81164 34.465 4.90529 33.0094C4.76597 32.9339 4.63342 32.8464 4.50914 32.7481C4.34174 32.3076 4.04516 31.9282 3.65837 31.6596C3.27158 31.391 2.81267 31.2459 2.34197 31.2433H2.33032C1.7143 31.2433 1.12334 31.4875 0.686653 31.9225C0.249971 32.3575 0.00309939 32.9479 1.92951e-05 33.5646C-0.0069716 35.4591 1.88756 36.6839 2.66355 37.0992C3.57016 38.0138 4.29945 39.0889 4.81441 40.2698C5.66264 42.6565 8.14441 46.2843 15.2215 45.8131L15.2262 46.0417L15.2355 46.667C15.2355 47.2857 15.481 47.8791 15.918 48.3167C16.355 48.7542 16.9478 49 17.5658 49H28.5508C29.1688 49 29.7616 48.7542 30.1986 48.3167C30.6356 47.8791 30.8811 47.2857 30.8811 46.667C30.8811 46.667 30.8998 39.2946 30.8998 38.0581C30.9153 37.2005 30.8133 36.3449 30.5968 35.5151L30.5922 35.5011L30.6015 35.5151C30.5805 35.4334 30.5502 35.3681 30.5269 35.2887C30.2673 34.1328 29.6664 33.0818 28.8025 32.2721L28.8305 32.3211L28.7838 32.2745C35.332 31.5279 42.1597 29.0782 42.9054 18.7895C42.9731 18.1307 43.0042 17.4687 42.9987 16.8064C43.04 14.0197 42.1272 11.3027 40.412 9.10742V9.10509Z"
    fill="#67E6CF"
  />
</svg>
