<svg
  width="43"
  height="41"
  viewBox="0 0 43 41"
  fill="none"
  xmlns="http://www.w3.org/2000/svg"
>
<path
    d="M42.9207 22.6119L37.1136 2.03141V2.02586C36.7083 0.75484 35.7431 0 34.538 0C33.2902 0 32.2717 0.749289 31.8877 1.9537L28.0803 13.7758H14.9197L11.1123 1.9537C10.7284 0.749289 9.70989 0 8.46209 0C7.23028 0 6.19578 0.821443 5.88116 2.03141L0.0794117 22.6119C-0.155218 23.4278 0.143402 24.3547 0.799298 24.8709L20.4495 40.2119C20.5882 40.4117 20.7801 40.5615 21.0041 40.6448L21.4627 41L21.916 40.6448C22.1773 40.5504 22.3959 40.3839 22.5505 40.1508L42.1954 24.8653C42.8567 24.3547 43.1553 23.4278 42.9207 22.6119ZM34.2713 2.69744C34.3247 2.59754 34.426 2.59199 34.458 2.59199C34.5166 2.59199 34.5913 2.60864 34.6393 2.75849L37.8068 13.848H30.6879L34.2713 2.69744ZM8.28078 2.75294C8.32878 2.60864 8.40343 2.59199 8.46209 2.59199C8.60607 2.59199 8.61673 2.59754 8.64339 2.68634L12.2322 13.8535H5.1986L8.28078 2.75294ZM2.65501 22.9727L4.15877 17.5722L14.9517 32.5691L2.65501 22.9727ZM6.59572 16.5121H13.1067L17.9486 32.2916L6.59572 16.5121ZM21.5374 35.0334L15.8209 16.5121H27.2485L21.5374 35.0334ZM29.9574 16.5121H36.3297L25.1155 32.0973L29.9574 16.5121ZM27.787 32.8244L38.8413 17.4668L40.4144 22.9727L27.787 32.8244Z"
    fill="#67E6CF"
  />
</svg>
