<svg width="28" height="33" viewBox="0 0 28 33" fill="none" xmlns="http://www.w3.org/2000/svg">
<path d="M0 0L2.54816 29.7L13.9831 33L25.4479 29.6959L28 0H0.00198464H0ZM23.2629 27.8066L14.0466 30.4611V30.4755L14.0228 30.4673L13.999 30.4755V30.4611L4.78276 27.8066L2.60373 2.42963H25.4419L23.2629 27.8066ZM18.3015 17.0858L17.8967 21.8089L13.9831 22.9061L10.0795 21.813L9.82947 18.9049H6.31086L6.80105 24.6262L13.997 26.6949L21.1712 24.6262L22.1337 13.4434H9.35913L9.03962 9.71231H22.4512L22.7648 6.06994H5.20746L6.15409 17.0858H18.3015Z" fill="#67E6CF"/>
</svg>
