<svg width="32" height="32" viewBox="0 0 32 32" fill="none" xmlns="http://www.w3.org/2000/svg">
<path d="M0 0H32V32H0V0ZM29.3778 24.368C29.1449 22.9084 28.1938 21.6818 25.3742 20.5369C24.3929 20.0764 23.3031 19.7582 22.976 19.0187C22.8551 18.5778 22.8373 18.3396 22.9156 18.0782C23.1164 17.2178 24.1369 16.96 24.9369 17.1982C25.4578 17.3582 25.9378 17.7582 26.2382 18.4C27.616 17.4987 27.616 17.4987 28.5778 16.8996C28.2169 16.3413 28.0373 16.0978 27.7973 15.8578C26.9564 14.9191 25.8364 14.4391 24.0178 14.48L23.0791 14.5991C22.1778 14.8196 21.3173 15.3013 20.7982 15.9396C19.2782 17.6604 19.7173 20.6596 21.5573 21.9022C23.376 23.2622 26.0391 23.5609 26.3787 24.8409C26.6987 26.4018 25.2196 26.9013 23.7564 26.7218C22.6773 26.48 22.0764 25.9413 21.4169 24.9404L18.9778 26.3413C19.2569 26.9796 19.5769 27.2604 20.0569 27.8204C22.3769 30.16 28.1778 30.0409 29.2178 26.48C29.2551 26.3609 29.5378 25.5413 29.3173 24.2809L29.3778 24.368ZM17.4009 14.7076H14.4036C14.4036 17.2907 14.3911 19.8596 14.3911 22.448C14.3911 24.0907 14.4747 25.5982 14.2062 26.0622C13.7671 26.9813 12.6311 26.864 12.1173 26.7004C11.5893 26.4409 11.3209 26.08 11.0098 25.5609C10.9262 25.4222 10.864 25.3013 10.8409 25.3013L8.40889 26.8018C8.816 27.6427 9.40978 28.3644 10.176 28.8231C11.3156 29.504 12.8462 29.7244 14.4498 29.3653C15.4951 29.0631 16.3964 28.4427 16.864 27.4827C17.5467 26.2436 17.4009 24.7218 17.3956 23.0222C17.4098 20.2827 17.3956 17.5413 17.3956 14.7822L17.4009 14.7076Z" fill="#67E6CF"/>
</svg>
