<svg
  width="43"
  height="51"
  viewBox="0 0 43 51"
  fill="none"
  xmlns="http://www.w3.org/2000/svg"
>
<path
    d="M18.3459 10.4872C24.3459 5.98718 36.8459 13.4872 31.3459 21.4872C23.8459 27.9872 12.8459 16.4872 18.3459 10.4872Z"
    fill="#67E6CF"
  />
<path
    d="M10.3459 49.9872L1.84592 28.9872C1.44592 28.1872 1.52709 27.6597 2.34592 27.9872C7.34592 29.9872 18.3459 30.9872 25.3459 28.9872C33.3459 25.9872 38.3459 20.4872 33.8459 11.9872C32.8459 9.48718 34.8459 10.4872 35.3459 10.9872C41.8459 17.9872 42.3459 20.4872 42.3459 25.9872C40.3485 42.4656 24.8863 46.9754 12.8929 50.4735L12.8459 50.4872C10.8459 50.8872 10.8459 50.9872 10.3459 49.9872Z"
    fill="#67E6CF"
  />
<path
    d="M31.3459 3.48726C2.84584 -7.5128 -3.15412 9.48716 1.3459 26.9873C6.17923 27.6539 16.2459 29.0872 17.8459 29.4872C19.0459 29.8872 19.0126 29.3205 18.8459 28.9872C11.3459 9.98718 12.8459 2.48718 31.3459 5.48718C33.3459 5.48718 33.8459 4.48718 31.3459 3.48726Z"
    fill="#67E6CF"
  />
</svg>
