<svg
  width="42"
  height="41"
  viewBox="0 0 42 41"
  fill="none"
  xmlns="http://www.w3.org/2000/svg"
>
<path
    d="M38.6242 0H3.37575C1.512 0 0 1.476 0 3.29538V37.7046C0 39.524 1.512 41 3.37575 41H38.6242C40.488 41 42 39.524 42 37.7046V3.29538C42 1.476 40.488 0 38.6242 0ZM38.6242 37.72C15.1148 37.7149 3.36 37.7098 3.36 37.7046C3.36525 14.7549 3.3705 3.28 3.37575 3.28C26.8852 3.28513 38.64 3.29025 38.64 3.29538C38.6348 26.2451 38.6295 37.72 38.6242 37.72ZM6.2265 15.3699H12.4582V34.9371H6.2265V15.3699ZM9.345 12.6946C11.3348 12.6946 12.957 11.1161 12.957 9.16862C12.957 8.70558 12.8636 8.24708 12.6821 7.81928C12.5005 7.39149 12.2345 7.00279 11.8991 6.67537C11.5637 6.34795 11.1655 6.08822 10.7273 5.91103C10.289 5.73383 9.81933 5.64263 9.345 5.64263C8.87067 5.64263 8.40098 5.73383 7.96275 5.91103C7.52452 6.08822 7.12634 6.34795 6.79093 6.67537C6.45553 7.00279 6.18947 7.39149 6.00795 7.81928C5.82643 8.24708 5.733 8.70558 5.733 9.16862C5.72775 11.1161 7.34475 12.6946 9.345 12.6946ZM22.5907 25.256C22.5907 22.7037 23.0895 20.2335 26.3287 20.2335C29.5207 20.2335 29.568 23.1496 29.568 25.42V34.9371H35.7945V24.2054C35.7945 18.9369 34.629 14.883 28.3237 14.883C25.2945 14.883 23.2628 16.5076 22.428 18.0451H22.344V15.3699H16.3643V34.9371H22.5907V25.256Z"
    fill="#67E6CF"
  />
</svg>
