<svg width="30" height="35" viewBox="0 0 30 35" fill="none" xmlns="http://www.w3.org/2000/svg">
<path d="M14.9531 34.4497C14.5045 34.4497 14.0491 34.3267 13.654 34.0942L9.52232 31.5991C8.90625 31.2437 9.20759 31.1206 9.40848 31.0522C10.2321 30.7583 10.3996 30.6968 11.2768 30.1841C11.3705 30.1294 11.4911 30.1499 11.5848 30.2114L14.7589 32.1323C14.8728 32.2007 15.0335 32.2007 15.1406 32.1323L27.5089 24.8452C27.6228 24.7769 27.6964 24.6401 27.6964 24.5034V9.9292C27.6964 9.78565 27.6228 9.65576 27.5022 9.58057L15.1406 2.30029C15.0268 2.23193 14.8728 2.23193 14.7589 2.30029L2.40402 9.5874C2.28348 9.65576 2.20982 9.79248 2.20982 9.93604V24.5034C2.20982 24.6401 2.28348 24.7769 2.40402 24.8384L5.79241 26.8345C7.63393 27.771 8.75893 26.6704 8.75893 25.5562V11.1733C8.75893 10.9683 8.91964 10.811 9.12054 10.811H10.6875C10.8817 10.811 11.0491 10.9683 11.0491 11.1733V25.563C11.0491 28.0649 9.70982 29.5005 7.38616 29.5005C6.66964 29.5005 6.10714 29.5005 4.54018 28.7075L1.29911 26.8003C0.495536 26.3286 0 25.4468 0 24.4966V9.9292C0 8.98584 0.495536 8.09717 1.29911 7.62549L13.654 0.338379C14.4375 -0.112793 15.4754 -0.112793 16.2522 0.338379L28.6205 7.63232C29.4241 8.104 29.9196 8.98584 29.9196 9.93604V24.5034C29.9196 25.4468 29.4241 26.3286 28.6205 26.8071L16.2522 34.0942C15.8571 34.3267 15.4085 34.4497 14.9531 34.4497ZM24.9375 20.0874C24.9375 17.3599 23.1295 16.6353 19.3326 16.1226C15.4888 15.603 15.1004 15.3364 15.1004 14.4204C15.1004 13.6616 15.4286 12.6499 18.2746 12.6499C20.8125 12.6499 21.75 13.2105 22.1384 14.9605C22.1719 15.1245 22.3192 15.2476 22.4866 15.2476H24.0938C24.1942 15.2476 24.2879 15.2065 24.3549 15.1313C24.4219 15.0562 24.4554 14.9536 24.4487 14.8511C24.2009 11.8364 22.2388 10.4351 18.2746 10.4351C14.7455 10.4351 12.6429 11.9526 12.6429 14.5024C12.6429 17.2642 14.7388 18.0298 18.1205 18.3716C22.1719 18.7749 22.4866 19.3833 22.4866 20.1968C22.4866 21.605 21.375 22.2065 18.7701 22.2065C15.4955 22.2065 14.779 21.3657 14.5379 19.7046C14.5112 19.5269 14.3638 19.397 14.183 19.397H12.5826C12.3817 19.397 12.2277 19.561 12.2277 19.7593C12.2277 21.8853 13.3594 24.4214 18.7768 24.4214C22.6875 24.4146 24.9375 22.8355 24.9375 20.0874Z" fill="#67E6CF"/>
</svg>
