<svg width="35" height="41" viewBox="0 0 35 41" fill="none" xmlns="http://www.w3.org/2000/svg">
<path d="M31.4824 21.2708C31.2516 20.9961 31.0083 20.7207 30.7526 20.4447C30.9309 20.2479 31.1041 20.0517 31.2719 19.8563C34.4292 16.1581 35.763 12.4476 34.5276 10.2193C33.3433 8.0811 29.8202 7.44355 25.4078 8.33735C24.9737 8.42618 24.5416 8.52595 24.1114 8.63665C24.0288 8.34145 23.9416 8.04762 23.8498 7.75515C22.3528 3.0545 19.9351 -0.00204897 17.4644 1.03055e-06C15.0959 1.03055e-06 12.8061 2.86385 11.3445 7.2939C11.2003 7.73123 11.0671 8.1713 10.9452 8.6141C10.658 8.5403 10.3695 8.47197 10.0796 8.4091C5.4253 7.41485 1.67785 8.07085 0.444433 10.3033C-0.737835 12.4415 0.497546 15.9408 3.45027 19.4709C3.74403 19.8194 4.04566 20.1611 4.35516 20.4959C3.98927 20.8854 3.64502 21.277 3.3224 21.6665C0.440499 25.1474 -0.724064 28.5872 0.456236 30.7172C1.67588 32.9189 5.37022 33.6385 9.86913 32.716C10.2337 32.6408 10.5963 32.556 10.957 32.4618C11.0881 32.9414 11.233 33.4177 11.3917 33.8906C12.8474 38.2304 15.1234 41 17.484 41C19.9233 41 22.3666 38.0213 23.8478 33.4991C23.9659 33.1423 24.0741 32.7713 24.1803 32.39C24.6458 32.5103 25.1147 32.6169 25.5868 32.7098C29.9205 33.5647 33.3611 32.8943 34.5394 30.7623C35.7571 28.5586 34.5 24.8645 31.4824 21.2708ZM1.90014 11.1766C2.65946 9.8031 5.72234 9.266 9.74127 10.127C9.99831 10.1817 10.2599 10.2432 10.5262 10.3115C10.1333 12.1203 9.85599 13.9543 9.69602 15.8014C8.24672 16.8634 6.86485 18.0221 5.55907 19.27C5.27186 18.9598 4.99187 18.642 4.71909 18.3168C2.18734 15.2951 1.18802 12.4661 1.90014 11.1766ZM9.54652 22.919C8.54326 22.1257 7.60886 21.3139 6.76101 20.498C7.60689 19.6862 8.5413 18.8785 9.54455 18.0872C9.50783 18.8921 9.49013 19.6978 9.49144 20.5041C9.49144 21.3104 9.5098 22.1154 9.54652 22.919ZM9.54652 30.996C7.84142 31.3917 6.08099 31.4571 4.3532 31.1887C3.87953 31.1501 3.41849 31.0107 2.99859 30.779C2.57869 30.5473 2.20885 30.2284 1.91194 29.8419C1.19392 28.5504 2.1303 25.787 4.59516 22.8104C4.90466 22.4373 5.22465 22.0737 5.55514 21.7198C6.86151 22.9754 8.24614 24.1396 9.69996 25.2048C9.86152 27.0752 10.1415 28.9324 10.538 30.7644C10.2101 30.8505 9.87897 30.9284 9.54455 30.9981L9.54652 30.996ZM23.5134 14.5161C22.8538 14.0828 22.1862 13.6639 21.5108 13.2594C20.8446 12.8603 20.1712 12.4756 19.4906 12.1053C20.6571 11.5948 21.8039 11.1582 22.9115 10.8035C23.1719 12.0297 23.3728 13.2688 23.5134 14.5161ZM12.936 7.86175C14.1871 4.06925 16.0401 1.75275 17.4683 1.75275C18.9889 1.7507 20.964 4.24965 22.2564 8.3066C22.3403 8.57173 22.419 8.83823 22.4925 9.1061C20.7958 9.65405 19.1359 10.3183 17.5234 11.0946C15.9163 10.3088 14.2601 9.63694 12.5661 9.08355C12.6802 8.67355 12.8035 8.26628 12.936 7.86175ZM12.1491 10.781C13.304 11.1598 14.4398 11.599 15.5523 12.0971C14.1726 12.8378 12.8297 13.6448 11.5235 14.5181C11.6809 13.2102 11.8914 11.9577 12.1491 10.781ZM11.5255 26.484C12.1773 26.9199 12.8389 27.3388 13.5104 27.7406C14.1949 28.1506 14.888 28.5442 15.5897 28.9214C14.4692 29.4367 13.3241 29.8917 12.1589 30.2847C11.8882 29.03 11.6768 27.7623 11.5255 26.486V26.484ZM22.2584 32.9333C21.735 34.6697 20.9095 36.2909 19.823 37.7159C19.5548 38.1244 19.209 38.4713 18.807 38.735C18.405 38.9987 17.9554 39.1738 17.486 39.2493C16.0519 39.2493 14.2244 37.025 12.9812 33.3125C12.8343 32.8738 12.6992 32.431 12.576 31.9841C14.2779 31.412 15.9407 30.7202 17.5529 29.9136C19.1791 30.6961 20.8528 31.3666 22.5633 31.9205C22.4688 32.2608 22.3672 32.5984 22.2584 32.9333ZM22.9705 30.219C21.8512 29.8582 20.6886 29.4134 19.5043 28.8948C20.1718 28.5299 20.844 28.1438 21.5207 27.7365C22.2157 27.3183 22.8924 26.8899 23.5508 26.4512C23.4193 27.7166 23.2256 28.9743 22.9705 30.219ZM23.8498 20.4959C23.8498 21.7409 23.8124 22.9846 23.7377 24.2269C22.7679 24.9116 21.7449 25.5799 20.6807 26.2195C19.6184 26.8571 18.5699 27.4434 17.5391 27.9743C16.4546 27.4331 15.391 26.8495 14.3484 26.2236C13.3123 25.6018 12.2999 24.9396 11.3111 24.2372C11.2193 22.9935 11.1734 21.7485 11.1734 20.5021C11.1734 19.257 11.218 18.0127 11.3071 16.769C13.2846 15.362 15.3613 14.1128 17.5195 13.0319C18.5896 13.5744 19.6407 14.1559 20.6728 14.7764C21.7089 15.3969 22.7252 16.0522 23.7219 16.7424C23.8072 17.9915 23.8498 19.2427 23.8498 20.4959ZM25.7304 10.0553C29.5113 9.2906 32.3598 9.80515 33.0738 11.0946C33.8351 12.4681 32.7453 15.498 30.0169 18.6919C29.8661 18.8682 29.71 19.0452 29.5487 19.2229C28.2198 17.971 26.8107 16.8148 25.3311 15.7625C25.1821 13.9358 24.9159 12.1216 24.5344 10.332C24.9409 10.2281 25.3396 10.1359 25.7304 10.0553ZM25.4747 18.0195C26.4731 18.7789 27.4331 19.5918 28.3507 20.4549C27.4373 21.3318 26.4806 22.1584 25.4845 22.9313C25.5147 22.1195 25.5298 21.3077 25.5298 20.4959C25.5298 19.6704 25.5114 18.845 25.4747 18.0195ZM33.0857 29.887C32.3696 31.1805 29.6077 31.7197 25.8996 30.9899C25.4747 30.9065 25.0393 30.8067 24.5934 30.6906C24.9657 28.8778 25.2201 27.0409 25.3547 25.1924C26.8317 24.1224 28.2363 22.9477 29.5585 21.6767C29.7906 21.9268 30.011 22.1755 30.2195 22.4229C31.4019 23.7627 32.3374 25.3179 32.9794 27.0108C33.1849 27.4572 33.3003 27.9427 33.3186 28.4374C33.3369 28.9321 33.2576 29.4254 33.0857 29.887ZM15.7372 17.2979C15.1355 17.66 14.6503 18.1999 14.343 18.8493C14.0357 19.4987 13.9201 20.2285 14.0107 20.9464C14.1014 21.6643 14.3943 22.3381 14.8525 22.8825C15.3106 23.4269 15.9133 23.8176 16.5845 24.005C17.2556 24.1925 17.965 24.1684 18.623 23.9357C19.281 23.703 19.858 23.2723 20.2811 22.6979C20.7041 22.1235 20.9543 21.4312 20.9998 20.7087C21.0454 19.9862 20.8844 19.2658 20.5371 18.6386C20.3064 18.2221 19.9993 17.857 19.6333 17.5642C19.2672 17.2714 18.8494 17.0566 18.4036 16.9321C17.9579 16.8076 17.493 16.7758 17.0355 16.8386C16.578 16.9014 16.1368 17.0574 15.7372 17.2979Z" fill="#67E6CF"/>
</svg>
