<svg
  width="34"
  height="34"
  viewBox="0 0 34 34"
  fill="none"
  xmlns="http://www.w3.org/2000/svg"
>
<path
    d="M33.2302 15.7354L2.10061 0.14964C1.85663 0.0274573 1.58257 -0.0214988 1.31145 0.00866697C1.04032 0.0388328 0.783683 0.146834 0.572434 0.319667C0.370692 0.488975 0.220113 0.711277 0.137624 0.961581C0.0551345 1.21188 0.0440063 1.48027 0.10549 1.73656L3.85519 15.5796H19.8586V18.4134H3.85519L0.048891 32.2139C-0.00880276 32.4279 -0.0155374 32.6525 0.0292288 32.8696C0.073995 33.0867 0.169013 33.2903 0.306642 33.4639C0.444272 33.6376 0.620672 33.7765 0.82166 33.8694C1.02265 33.9624 1.24261 34.0068 1.46387 33.9992C1.68538 33.9978 1.90347 33.9444 2.10061 33.8433L33.2302 18.2575C33.462 18.1386 33.6565 17.958 33.7923 17.7355C33.9281 17.513 34 17.2572 34 16.9965C34 16.7357 33.9281 16.48 33.7923 16.2575C33.6565 16.035 33.462 15.8543 33.2302 15.7354Z"
    fill="#67E692"
  />
</svg>
